<svg xmlns="http://www.w3.org/2000/svg" xmlns:xlink="http://www.w3.org/1999/xlink" width="2000" zoomAndPan="magnify" viewBox="0 0 1500 1499.999933" height="2000" preserveAspectRatio="xMidYMid meet" version="1.0"><defs><clipPath id="601d0a6ddf"><path d="M 16.40625 0 L 1483.40625 0 L 1483.40625 1500 L 16.40625 1500 Z M 16.40625 0 " clip-rule="nonzero"/></clipPath></defs><rect x="-150" width="1800" fill="#ffffff" y="-149.999993" height="1799.99992" fill-opacity="1"/><rect x="-150" width="1800" fill="#89909b" y="-149.999993" height="1799.99992" fill-opacity="1"/><g clip-path="url(#601d0a6ddf)"><path fill="#000011" d="M 1483.40625 1473.136719 C 1483.40625 1372.21875 1418.355469 1281.984375 1320.359375 1244.261719 L 1103.726562 1156.320312 L 1088.28125 1163.140625 L 983.585938 1122.398438 C 979.480469 1054.554688 976.945312 1010.855469 975.378906 982.847656 C 990.585938 971.5625 1002.773438 960.214844 1010.316406 949.410156 C 1031.859375 918.628906 1023.230469 842.699219 1033.609375 807.992188 C 1036.867188 797.246094 1039.339844 784.03125 1041.453125 769.605469 C 1049.601562 773.164062 1058.773438 773.707031 1067.402344 771.171875 C 1078.382812 767.972656 1087.496094 760.367188 1092.261719 749.988281 C 1094.976562 744.011719 1096.488281 737.613281 1097.996094 731.214844 C 1099.503906 724.878906 1101.375 718.722656 1103.726562 712.6875 C 1108.433594 700.675781 1114.527344 689.265625 1119.175781 677.195312 C 1121.46875 671.28125 1123.398438 665.246094 1124.546875 659.027344 C 1125.8125 652.386719 1125.875 645.628906 1125.691406 638.867188 C 1125.511719 631.867188 1124.484375 624.925781 1123.703125 617.984375 C 1123.519531 616.234375 1123.339844 614.484375 1123.15625 612.734375 C 1123.097656 611.828125 1123.039062 610.863281 1122.976562 609.957031 C 1122.976562 609.59375 1122.976562 609.230469 1122.976562 608.871094 C 1123.15625 605.25 1123.640625 601.746094 1124.363281 598.1875 C 1125.691406 591.488281 1127.082031 585.027344 1127.082031 578.148438 L 1127.082031 577.0625 C 1127.082031 571.570312 1126.839844 566.078125 1124.304688 561.066406 C 1121.710938 555.996094 1117.0625 552.496094 1111.453125 551.53125 C 1105.597656 550.503906 1099.503906 551.953125 1094.074219 554.003906 C 1087.796875 556.296875 1081.882812 559.496094 1075.96875 562.636719 C 1071.804688 564.867188 1067.761719 567.164062 1063.71875 569.578125 C 1064.503906 557.445312 1065.109375 544.648438 1065.652344 531.492188 C 1089.0625 485.136719 1108.855469 436.910156 1117.726562 385.242188 C 1123.820312 349.875 1120.261719 323.796875 1106.867188 305.570312 C 1099.382812 295.371094 1088.402344 288.246094 1076.273438 284.625 C 1103.667969 280.160156 1132.390625 283.058594 1158.277344 292.957031 L 1159.484375 293.4375 C 1159.484375 293.4375 1129.191406 270.441406 1087.617188 270.804688 C 1077.175781 270.925781 1067.582031 271.046875 1058.773438 272.675781 C 1074.160156 260.363281 1092.140625 251.367188 1111.210938 246.359375 L 1115.011719 245.394531 L 1111.089844 245.152344 C 1086.410156 243.765625 1067.945312 249.496094 1043.988281 260.722656 C 1046.222656 227.40625 1056.660156 215.578125 1078.925781 190.589844 L 1082.066406 187.027344 L 1081.21875 186.121094 C 1061.546875 203.144531 1037.472656 225.898438 1021.300781 254.144531 C 1026.851562 238.753906 1031.558594 222.941406 1033.972656 206.703125 C 1037.109375 185.820312 1037.589844 155.339844 1021.84375 128.78125 C 1005.730469 101.558594 974.835938 82.246094 927.40625 69.570312 C 925.234375 68.964844 923 68.421875 920.828125 67.878906 C 907.433594 64.441406 893.671875 60.816406 881.664062 53.816406 C 862.296875 42.53125 848.71875 22.613281 845.339844 0.460938 L 844.132812 0.640625 C 844.253906 1.367188 844.375 2.03125 844.492188 2.753906 C 844.492188 2.753906 831.761719 58.464844 888.847656 98.785156 C 893.433594 101.984375 902.964844 108.019531 930.601562 114.597656 C 881.0625 105.664062 860.121094 77.417969 814.984375 51.765625 C 778.660156 31.0625 750.480469 19.109375 709.445312 12.410156 C 669.558594 5.890625 617.90625 24 589.363281 45.183594 L 589.726562 45.667969 L 589.726562 46.273438 C 661.894531 14.160156 714.09375 61.121094 717.53125 63.414062 C 620.5625 42.710938 548.332031 45.546875 474.046875 71.019531 C 440.800781 82.425781 418.410156 104.398438 407.488281 125.160156 L 408.03125 125.460938 L 408.394531 125.945312 C 426.136719 113.511719 450.332031 104.398438 473.746094 101.199219 C 437.539062 118.941406 405.738281 148.578125 383.894531 184.976562 C 363.199219 219.378906 352.035156 258.792969 351.972656 297.058594 C 351.851562 297.964844 351.734375 298.871094 351.671875 299.777344 L 352.035156 299.777344 C 352.035156 302.371094 352.15625 304.90625 352.277344 307.441406 L 353.542969 307.441406 C 353.363281 303.941406 353.300781 300.5 353.300781 297.121094 C 360.242188 243.824219 397.414062 194.933594 446.953125 174.050781 C 380.878906 243.28125 350.101562 343.355469 366.699219 436.066406 C 371.402344 462.382812 386.914062 486.644531 394.9375 511.632812 L 420.039062 565.050781 C 410.628906 557.503906 386.371094 550.5625 380.578125 555.089844 C 376.171875 558.53125 373.9375 563.902344 373.152344 569.335938 C 372.851562 571.386719 372.792969 573.441406 372.792969 575.550781 C 372.792969 576.097656 372.792969 578.027344 372.792969 578.449219 L 372.792969 578.628906 C 372.792969 581.828125 373.035156 584.90625 373.578125 588.046875 C 374.121094 591.546875 374.964844 595.046875 375.628906 598.550781 C 376.230469 601.746094 376.59375 604.945312 376.894531 608.207031 C 376.894531 608.207031 376.894531 608.328125 376.894531 608.386719 C 376.894531 608.507812 376.894531 608.566406 376.894531 608.6875 C 376.894531 609.113281 376.894531 609.472656 376.894531 609.777344 C 376.894531 610.800781 376.773438 611.828125 376.714844 612.855469 C 376.59375 614.726562 376.351562 616.535156 376.171875 618.40625 C 375.75 622.027344 375.265625 625.589844 374.902344 629.210938 C 373.515625 642.488281 373.816406 655.769531 377.679688 668.5625 C 381.421875 680.878906 387.335938 692.34375 392.523438 704.113281 C 395.117188 709.96875 397.53125 715.945312 399.402344 722.101562 C 401.335938 728.378906 402.542969 734.835938 404.410156 741.175781 C 406.160156 747.152344 408.515625 753.066406 412.4375 758.015625 C 415.816406 762.300781 420.222656 765.800781 425.050781 768.335938 C 434.886719 773.40625 446.710938 774.492188 457.03125 770.386719 C 457.816406 770.085938 458.660156 769.722656 459.445312 769.363281 C 461.132812 779.804688 463.125 789.402344 465.480469 797.671875 C 476.160156 835.03125 466.203125 916.515625 489.132812 949.652344 C 496.738281 960.699219 509.226562 972.285156 524.796875 983.753906 C 523.226562 1012.605469 520.691406 1056.667969 516.589844 1122.457031 L 407.1875 1162.898438 L 392.34375 1158.128906 L 182.167969 1247.882812 C 82.664062 1282.285156 16.40625 1373.183594 16.40625 1475.070312 L 16.40625 1534.039062 L 1483.40625 1534.039062 L 1483.40625 1473.078125 Z M 1483.40625 1473.136719 " fill-opacity="1" fill-rule="nonzero"/><path fill="#e3e3e3" d="M 1483.59375 1472.957031 C 1483.59375 1372.050781 1418.535156 1281.828125 1320.527344 1244.109375 L 1103.867188 1156.175781 L 1088.417969 1162.996094 L 983.707031 1122.261719 C 979.605469 1054.425781 977.070312 1010.730469 975.5 982.730469 C 990.710938 971.445312 1002.898438 960.097656 1010.445312 949.292969 C 1031.988281 918.515625 1023.359375 842.59375 1033.738281 807.894531 C 1037 797.152344 1039.472656 783.933594 1041.585938 769.511719 C 1049.730469 773.070312 1058.90625 773.613281 1067.535156 771.078125 C 1078.519531 767.878906 1087.632812 760.277344 1092.398438 749.894531 C 1095.117188 743.921875 1096.625 737.523438 1098.132812 731.125 C 1099.640625 724.789062 1101.511719 718.632812 1103.867188 712.597656 C 1108.574219 700.589844 1114.667969 689.183594 1119.316406 677.113281 C 1121.609375 671.199219 1123.542969 665.164062 1124.6875 658.949219 C 1125.957031 652.308594 1126.015625 645.550781 1125.835938 638.789062 C 1125.652344 631.789062 1124.628906 624.847656 1123.84375 617.910156 C 1123.660156 616.160156 1123.480469 614.410156 1123.300781 612.660156 C 1123.238281 611.753906 1123.179688 610.789062 1123.117188 609.882812 C 1123.117188 609.519531 1123.117188 609.15625 1123.117188 608.796875 C 1123.300781 605.175781 1123.78125 601.675781 1124.507812 598.113281 C 1125.835938 591.414062 1127.222656 584.957031 1127.222656 578.078125 L 1127.222656 576.992188 C 1127.222656 571.5 1126.980469 566.007812 1124.445312 560.996094 C 1121.851562 555.929688 1117.203125 552.429688 1111.589844 551.460938 C 1105.738281 550.4375 1099.640625 551.886719 1094.210938 553.9375 C 1087.933594 556.230469 1082.019531 559.429688 1076.105469 562.566406 C 1071.941406 564.800781 1067.898438 567.09375 1063.855469 569.507812 C 1064.636719 557.378906 1065.242188 544.582031 1065.785156 531.425781 C 1089.203125 485.078125 1108.996094 436.855469 1117.867188 385.195312 C 1123.964844 349.832031 1120.402344 323.757812 1107.003906 305.535156 C 1099.519531 295.335938 1088.539062 288.210938 1076.40625 284.589844 C 1103.804688 280.125 1132.535156 283.023438 1158.421875 292.921875 L 1159.628906 293.402344 C 1159.628906 293.402344 1129.335938 270.410156 1087.753906 270.769531 C 1077.3125 270.890625 1067.714844 271.011719 1058.90625 272.640625 C 1074.292969 260.332031 1092.28125 251.339844 1111.351562 246.328125 L 1115.152344 245.363281 L 1111.230469 245.121094 C 1086.546875 243.734375 1068.078125 249.46875 1044.121094 260.691406 C 1046.351562 227.378906 1056.792969 215.550781 1079.0625 190.566406 L 1082.199219 187.003906 L 1081.355469 186.097656 C 1061.679688 203.117188 1037.601562 225.871094 1021.425781 254.113281 C 1026.980469 238.726562 1031.6875 222.914062 1034.101562 206.679688 C 1037.238281 185.796875 1037.722656 155.320312 1021.972656 128.765625 C 1005.855469 101.546875 974.957031 82.234375 927.523438 69.5625 C 925.347656 68.957031 923.117188 68.414062 920.945312 67.871094 C 907.546875 64.433594 893.785156 60.8125 881.777344 53.808594 C 862.402344 42.523438 848.824219 22.609375 845.445312 0.460938 L 844.238281 0.640625 C 844.359375 1.367188 844.480469 2.027344 844.601562 2.753906 C 844.601562 2.753906 831.867188 58.457031 888.957031 98.773438 C 893.542969 101.96875 903.078125 108.003906 930.71875 114.582031 C 881.171875 105.652344 860.230469 77.40625 815.089844 51.757812 C 778.757812 31.058594 750.574219 19.109375 709.535156 12.410156 C 669.644531 5.890625 617.984375 23.996094 589.4375 45.179688 L 589.796875 45.664062 L 589.796875 46.265625 C 661.976562 14.160156 714.183594 61.113281 717.621094 63.40625 C 620.636719 42.707031 548.398438 45.542969 474.105469 71.011719 C 440.851562 82.417969 418.464844 104.382812 407.539062 125.144531 L 408.082031 125.445312 L 408.445312 125.929688 C 426.1875 113.496094 450.386719 104.382812 473.804688 101.183594 C 437.59375 118.929688 405.789062 148.5625 383.941406 184.953125 C 363.242188 219.351562 352.078125 258.761719 352.015625 297.023438 C 351.894531 297.929688 351.773438 298.835938 351.714844 299.738281 L 352.078125 299.738281 C 352.078125 302.335938 352.199219 304.871094 352.320312 307.402344 L 353.585938 307.402344 C 353.40625 303.902344 353.34375 300.464844 353.34375 297.085938 C 360.285156 243.792969 397.460938 194.910156 447.007812 174.027344 C 380.925781 243.25 350.144531 343.3125 366.742188 436.011719 C 371.449219 462.324219 386.960938 486.585938 394.988281 511.570312 L 420.09375 564.980469 C 410.675781 557.4375 386.417969 550.496094 380.621094 555.023438 C 376.21875 558.464844 373.984375 563.835938 373.199219 569.265625 C 372.898438 571.316406 372.835938 573.371094 372.835938 575.480469 C 372.835938 576.023438 372.835938 577.957031 372.835938 578.378906 L 372.835938 578.558594 C 372.835938 581.757812 373.078125 584.835938 373.621094 587.976562 C 374.164062 591.476562 375.011719 594.976562 375.675781 598.476562 C 376.277344 601.675781 376.640625 604.871094 376.941406 608.132812 C 376.941406 608.132812 376.941406 608.253906 376.941406 608.3125 C 376.941406 608.433594 376.941406 608.492188 376.941406 608.613281 C 376.941406 609.039062 376.941406 609.398438 376.941406 609.699219 C 376.941406 610.726562 376.820312 611.753906 376.761719 612.777344 C 376.640625 614.648438 376.398438 616.460938 376.21875 618.332031 C 375.796875 621.953125 375.3125 625.511719 374.949219 629.132812 C 373.5625 642.410156 373.863281 655.6875 377.726562 668.484375 C 381.46875 680.792969 387.382812 692.261719 392.574219 704.027344 C 395.167969 709.882812 397.582031 715.859375 399.453125 722.015625 C 401.382812 728.289062 402.589844 734.746094 404.460938 741.085938 C 406.210938 747.058594 408.566406 752.972656 412.488281 757.921875 C 415.867188 762.207031 420.273438 765.707031 425.101562 768.242188 C 434.9375 773.3125 446.765625 774.398438 457.085938 770.292969 C 457.871094 769.992188 458.71875 769.628906 459.5 769.269531 C 461.191406 779.710938 463.183594 789.304688 465.535156 797.574219 C 476.21875 834.929688 466.261719 916.402344 489.195312 949.535156 C 496.796875 960.582031 509.289062 972.167969 524.859375 983.632812 C 523.292969 1012.480469 520.757812 1056.539062 516.652344 1122.320312 L 407.238281 1162.753906 L 392.390625 1157.988281 L 182.191406 1247.730469 C 82.671875 1282.128906 16.40625 1373.015625 16.40625 1474.890625 L 16.40625 1533.851562 L 1483.59375 1533.851562 L 1483.59375 1472.898438 Z M 1483.59375 1472.957031 " fill-opacity="1" fill-rule="nonzero"/></g></svg>